<?xml version="1.0" encoding="UTF-8" standalone="no"?>
<!DOCTYPE svg PUBLIC "-//W3C//DTD SVG 1.1//EN"
 "http://www.w3.org/Graphics/SVG/1.1/DTD/svg11.dtd">
<!-- Generated by graphviz version 2.36.0 (20140111.2315)
 -->
<!-- Title: %3 Pages: 1 -->
<svg width="977pt" height="1316pt"
 viewBox="0.00 0.00 976.85 1316.48" xmlns="http://www.w3.org/2000/svg" xmlns:xlink="http://www.w3.org/1999/xlink">
<g id="graph0" class="graph" transform="scale(1 1) rotate(0) translate(4 1312.48)">
<title>%3</title>
<polygon fill="white" stroke="none" points="-4,4 -4,-1312.48 972.853,-1312.48 972.853,4 -4,4"/>
<!-- 24 -->
<g id="node1" class="node"><title>24</title>
<polygon fill="white" stroke="black" points="868.208,-674.932 796.208,-674.932 796.208,-638.932 868.208,-638.932 868.208,-674.932"/>
<text text-anchor="middle" x="832.208" y="-653.432" font-family="Times,serif" font-size="15.00">24</text>
</g>
<!-- 25 -->
<g id="node2" class="node"><title>25</title>
<polygon fill="white" stroke="black" points="578.291,-1308.48 506.291,-1308.48 506.291,-1272.48 578.291,-1272.48 578.291,-1308.48"/>
<text text-anchor="middle" x="542.291" y="-1286.98" font-family="Times,serif" font-size="15.00">25</text>
</g>
<!-- 27 -->
<g id="node3" class="node"><title>27</title>
<polygon fill="white" stroke="black" points="489.022,-686.079 421.022,-686.079 421.022,-650.079 489.022,-650.079 489.022,-686.079"/>
<text text-anchor="middle" x="455.022" y="-664.579" font-family="Times,serif" font-size="15.00">27</text>
</g>
<!-- 21 -->
<g id="node4" class="node"><title>21</title>
<polygon fill="white" stroke="black" points="562.203,-1153.58 490.203,-1153.58 490.203,-1117.58 562.203,-1117.58 562.203,-1153.58"/>
<text text-anchor="middle" x="526.203" y="-1132.08" font-family="Times,serif" font-size="15.00">21</text>
</g>
<!-- 21&#45;&#45;25 -->
<g id="edge12" class="edge"><title>21&#45;&#45;25</title>
<path fill="none" stroke="black" stroke-width="3" d="M528.08,-1153.65C531.164,-1183.34 537.268,-1242.11 540.376,-1272.04"/>
<text text-anchor="middle" x="532.219" y="-1217.76" font-family="Times,serif" font-size="15.00"> </text>
</g>
<!-- 23 -->
<g id="node5" class="node"><title>23</title>
<polygon fill="white" stroke="black" points="888.973,-499.922 817.973,-499.922 817.973,-463.922 888.973,-463.922 888.973,-499.922"/>
<text text-anchor="middle" x="853.473" y="-478.422" font-family="Times,serif" font-size="15.00">23</text>
</g>
<!-- 23&#45;&#45;24 -->
<g id="edge15" class="edge"><title>23&#45;&#45;24</title>
<path fill="none" stroke="black" stroke-width="3" d="M851.277,-499.992C847.202,-533.528 838.514,-605.039 834.424,-638.698"/>
<text text-anchor="middle" x="840.856" y="-574.299" font-family="Times,serif" font-size="15.00"> </text>
</g>
<!-- 32 -->
<g id="node27" class="node"><title>32</title>
<polygon fill="white" stroke="black" points="801.173,-335.69 732.173,-335.69 732.173,-299.69 801.173,-299.69 801.173,-335.69"/>
<text text-anchor="middle" x="766.673" y="-314.19" font-family="Times,serif" font-size="15.00">32</text>
</g>
<!-- 23&#45;&#45;32 -->
<g id="edge16" class="edge"><title>23&#45;&#45;32</title>
<path fill="none" stroke="black" stroke-width="3" d="M843.852,-463.719C827.167,-432.15 793.051,-367.6 776.337,-335.975"/>
<text text-anchor="middle" x="808.106" y="-404.868" font-family="Times,serif" font-size="15.00"> </text>
</g>
<!-- 28 -->
<g id="node6" class="node"><title>28</title>
<polygon fill="white" stroke="black" points="427.855,-268.815 358.855,-268.815 358.855,-232.815 427.855,-232.815 427.855,-268.815"/>
<text text-anchor="middle" x="393.355" y="-247.315" font-family="Times,serif" font-size="15.00">28</text>
</g>
<!-- 3 -->
<g id="node9" class="node"><title>3</title>
<polygon fill="white" stroke="black" points="317.475,-466.261 246.475,-466.261 246.475,-430.261 317.475,-430.261 317.475,-466.261"/>
<text text-anchor="middle" x="281.975" y="-444.761" font-family="Times,serif" font-size="15.00">3</text>
</g>
<!-- 28&#45;&#45;3 -->
<g id="edge40" class="edge"><title>28&#45;&#45;3</title>
<path fill="none" stroke="chartreuse" stroke-width="5" stroke-dasharray="5,2" d="M383.076,-269.037C361.858,-306.651 313.426,-392.507 292.229,-430.084"/>
<text text-anchor="middle" x="298.644" y="-352.974" font-family="Times,serif" font-size="12.00" fill="#0000cd">VHG1→CDN1</text>
</g>
<!-- 37 -->
<g id="node25" class="node"><title>37</title>
<polygon fill="white" stroke="black" points="395.665,-107.095 326.665,-107.095 326.665,-71.0947 395.665,-71.0947 395.665,-107.095"/>
<text text-anchor="middle" x="361.165" y="-85.5947" font-family="Times,serif" font-size="15.00">37</text>
</g>
<!-- 28&#45;&#45;37 -->
<g id="edge18" class="edge"><title>28&#45;&#45;37</title>
<path fill="none" stroke="black" stroke-width="3" d="M389.725,-232.578C383.543,-201.519 371.038,-138.696 364.831,-107.513"/>
<text text-anchor="middle" x="375.287" y="-175.092" font-family="Times,serif" font-size="15.00"> </text>
</g>
<!-- 29 -->
<g id="node7" class="node"><title>29</title>
<polygon fill="white" stroke="black" points="570.133,-333.21 499.133,-333.21 499.133,-297.21 570.133,-297.21 570.133,-333.21"/>
<text text-anchor="middle" x="534.633" y="-311.71" font-family="Times,serif" font-size="15.00">29</text>
</g>
<!-- 0 -->
<g id="node8" class="node"><title>0</title>
<polygon fill="white" stroke="black" points="626.632,-264.319 555.632,-264.319 555.632,-228.319 626.632,-228.319 626.632,-264.319"/>
<text text-anchor="middle" x="591.132" y="-242.819" font-family="Times,serif" font-size="15.00">0</text>
</g>
<!-- 0&#45;&#45;28 -->
<g id="edge1" class="edge"><title>0&#45;&#45;28</title>
<path fill="none" stroke="black" stroke-width="3" d="M555.316,-247.133C519.138,-247.956 463.631,-249.218 427.91,-250.03"/>
<text text-anchor="middle" x="489.442" y="-253.585" font-family="Times,serif" font-size="15.00"> </text>
</g>
<!-- 0&#45;&#45;28 -->
<g id="edge39" class="edge"><title>0&#45;&#45;28</title>
<path fill="none" stroke="chartreuse" stroke-width="5" stroke-dasharray="5,2" d="M555.316,-247.133C519.138,-247.956 463.631,-249.218 427.91,-250.03"/>
<text text-anchor="middle" x="510.942" y="-238.985" font-family="Times,serif" font-size="12.00" fill="#0000cd">VHG1→CDN1</text>
</g>
<!-- 0&#45;&#45;32 -->
<g id="edge2" class="edge"><title>0&#45;&#45;32</title>
<path fill="none" stroke="black" stroke-width="3" d="M626.655,-260.762C657.411,-273.266 701.625,-291.243 732.1,-303.633"/>
<text text-anchor="middle" x="677.483" y="-287.24" font-family="Times,serif" font-size="15.00"> </text>
</g>
<!-- 3&#45;&#45;28 -->
<g id="edge21" class="edge"><title>3&#45;&#45;28</title>
<path fill="none" stroke="black" stroke-width="3" d="M292.254,-430.04C313.472,-392.425 361.904,-306.569 383.101,-268.993"/>
<text text-anchor="middle" x="335.685" y="-337.502" font-family="Times,serif" font-size="15.00"> </text>
</g>
<!-- 5 -->
<g id="node11" class="node"><title>5</title>
<polygon fill="white" stroke="#ff0000" points="182.594,-419.368 110.594,-419.368 110.594,-383.368 182.594,-383.368 182.594,-419.368"/>
<text text-anchor="middle" x="146.594" y="-397.868" font-family="Times,serif" font-size="15.00">5</text>
</g>
<!-- 3&#45;&#45;5 -->
<g id="edge23" class="edge"><title>3&#45;&#45;5</title>
<path fill="none" stroke="black" stroke-width="3" d="M246.405,-435.94C226.82,-429.156 202.564,-420.755 182.868,-413.932"/>
<text text-anchor="middle" x="212.678" y="-429.951" font-family="Times,serif" font-size="15.00"> </text>
</g>
<!-- 3&#45;&#45;5 -->
<g id="edge42" class="edge"><title>3&#45;&#45;5</title>
<path fill="none" stroke="chartreuse" stroke-width="5" stroke-dasharray="5,2" d="M246.405,-435.94C226.82,-429.156 202.564,-420.755 182.868,-413.932"/>
<text text-anchor="middle" x="253.678" y="-415.351" font-family="Times,serif" font-size="12.00" fill="#0000cd">VHG1→CDN1</text>
</g>
<!-- 4 -->
<g id="node12" class="node"><title>4</title>
<polygon fill="white" stroke="black" points="513.215,-500.744 442.215,-500.744 442.215,-464.744 513.215,-464.744 513.215,-500.744"/>
<text text-anchor="middle" x="477.715" y="-479.244" font-family="Times,serif" font-size="15.00">4</text>
</g>
<!-- 3&#45;&#45;4 -->
<g id="edge22" class="edge"><title>3&#45;&#45;4</title>
<path fill="none" stroke="black" stroke-width="3" d="M317.877,-454.586C353.195,-460.807 406.802,-470.251 442.041,-476.459"/>
<text text-anchor="middle" x="377.988" y="-470.527" font-family="Times,serif" font-size="15.00"> </text>
</g>
<!-- 2 -->
<g id="node10" class="node"><title>2</title>
<polygon fill="white" stroke="black" points="658.203,-158.856 591.203,-158.856 591.203,-122.856 658.203,-122.856 658.203,-158.856"/>
<text text-anchor="middle" x="624.703" y="-137.356" font-family="Times,serif" font-size="15.00">2</text>
</g>
<!-- 2&#45;&#45;29 -->
<g id="edge13" class="edge"><title>2&#45;&#45;29</title>
<path fill="none" stroke="black" stroke-width="3" d="M604.286,-158.857C587.7,-174.654 565.058,-199.113 552.432,-225.119 541.151,-248.353 537.02,-278.258 535.507,-297.088"/>
<text text-anchor="middle" x="550.415" y="-213.153" font-family="Times,serif" font-size="15.00"> </text>
</g>
<!-- 30 -->
<g id="node24" class="node"><title>30</title>
<polygon fill="white" stroke="#00ff00" points="834.362,-162.569 763.362,-162.569 763.362,-126.569 834.362,-126.569 834.362,-162.569"/>
<text text-anchor="middle" x="798.862" y="-141.069" font-family="Times,serif" font-size="15.00">30</text>
</g>
<!-- 2&#45;&#45;30 -->
<g id="edge14" class="edge"><title>2&#45;&#45;30</title>
<path fill="none" stroke="black" stroke-width="3" d="M658.283,-141.572C688.43,-142.215 732.546,-143.155 763.29,-143.811"/>
<text text-anchor="middle" x="708.563" y="-147.687" font-family="Times,serif" font-size="15.00"> </text>
</g>
<!-- 36 -->
<g id="node26" class="node"><title>36</title>
<polygon fill="white" stroke="black" points="537.15,-37.8191 465.15,-37.8191 465.15,-1.81915 537.15,-1.81915 537.15,-37.8191"/>
<text text-anchor="middle" x="501.15" y="-16.3191" font-family="Times,serif" font-size="15.00">36</text>
</g>
<!-- 2&#45;&#45;36 -->
<g id="edge17" class="edge"><title>2&#45;&#45;36</title>
<path fill="none" stroke="black" stroke-width="3" d="M606.206,-122.736C582.914,-99.9179 543.125,-60.9398 519.774,-38.0635"/>
<text text-anchor="middle" x="561.012" y="-85.4216" font-family="Times,serif" font-size="15.00"> </text>
</g>
<!-- CDN1 -->
<g id="node31" class="node"><title>CDN1</title>
<ellipse fill="red" stroke="black" cx="34.1638" cy="-383.315" rx="30.309" ry="30.309"/>
<ellipse fill="none" stroke="black" cx="34.1638" cy="-383.315" rx="34.3283" ry="34.3283"/>
<text text-anchor="middle" x="34.1638" y="-380.215" font-family="Times,serif" font-size="12.00">CDN1</text>
</g>
<!-- 5&#45;&#45;CDN1 -->
<g id="edge38" class="edge"><title>5&#45;&#45;CDN1</title>
<path fill="none" stroke="blue" d="M110.401,-395.556C96.7925,-393.371 81.3827,-390.897 67.9966,-388.747"/>
<text text-anchor="middle" x="87.1154" y="-395.938" font-family="Times,serif" font-size="14.00"> </text>
</g>
<!-- 4&#45;&#45;27 -->
<g id="edge27" class="edge"><title>4&#45;&#45;27</title>
<path fill="none" stroke="black" stroke-width="3" d="M475.498,-500.852C471.16,-536.284 461.594,-614.407 457.248,-649.897"/>
<text text-anchor="middle" x="464.376" y="-580.352" font-family="Times,serif" font-size="15.00"> </text>
</g>
<!-- 4&#45;&#45;29 -->
<g id="edge28" class="edge"><title>4&#45;&#45;29</title>
<path fill="none" stroke="black" stroke-width="3" d="M483.915,-464.496C494.863,-432.269 517.498,-365.646 528.441,-333.435"/>
<text text-anchor="middle" x="504.18" y="-403.959" font-family="Times,serif" font-size="15.00"> </text>
</g>
<!-- 6 -->
<g id="node14" class="node"><title>6</title>
<polygon fill="white" stroke="black" points="596.54,-601.551 524.54,-601.551 524.54,-565.551 596.54,-565.551 596.54,-601.551"/>
<text text-anchor="middle" x="560.54" y="-580.051" font-family="Times,serif" font-size="15.00">6</text>
</g>
<!-- 4&#45;&#45;6 -->
<g id="edge29" class="edge"><title>4&#45;&#45;6</title>
<path fill="none" stroke="black" stroke-width="3" d="M492.523,-500.766C507.505,-519.001 530.545,-547.043 545.582,-565.344"/>
<text text-anchor="middle" x="517.032" y="-538.031" font-family="Times,serif" font-size="15.00"> </text>
</g>
<!-- 17 -->
<g id="node20" class="node"><title>17</title>
<polygon fill="white" stroke="black" points="429.742,-418 357.742,-418 357.742,-382 429.742,-382 429.742,-418"/>
<text text-anchor="middle" x="393.742" y="-396.5" font-family="Times,serif" font-size="15.00">17</text>
</g>
<!-- 4&#45;&#45;17 -->
<g id="edge26" class="edge"><title>4&#45;&#45;17</title>
<path fill="none" stroke="black" stroke-width="3" d="M459.079,-464.38C445.066,-450.573 425.966,-431.752 412.038,-418.027"/>
<text text-anchor="middle" x="433.527" y="-446.173" font-family="Times,serif" font-size="15.00"> </text>
</g>
<!-- 16 -->
<g id="node21" class="node"><title>16</title>
<polygon fill="white" stroke="black" points="680.032,-438.941 608.032,-438.941 608.032,-402.941 680.032,-402.941 680.032,-438.941"/>
<text text-anchor="middle" x="644.032" y="-417.441" font-family="Times,serif" font-size="15.00">16</text>
</g>
<!-- 4&#45;&#45;16 -->
<g id="edge25" class="edge"><title>4&#45;&#45;16</title>
<path fill="none" stroke="black" stroke-width="3" d="M513.394,-469.485C541.265,-459.129 579.836,-444.795 607.838,-434.39"/>
<text text-anchor="middle" x="558.567" y="-456.956" font-family="Times,serif" font-size="15.00"> </text>
</g>
<!-- 7 -->
<g id="node13" class="node"><title>7</title>
<polygon fill="white" stroke="black" points="738.2,-663.96 673.2,-663.96 673.2,-627.96 738.2,-627.96 738.2,-663.96"/>
<text text-anchor="middle" x="705.7" y="-642.46" font-family="Times,serif" font-size="15.00">7</text>
</g>
<!-- 7&#45;&#45;24 -->
<g id="edge31" class="edge"><title>7&#45;&#45;24</title>
<path fill="none" stroke="black" stroke-width="3" d="M738.279,-648.785C755.996,-650.322 777.949,-652.226 796.176,-653.807"/>
<text text-anchor="middle" x="765.036" y="-656.28" font-family="Times,serif" font-size="15.00"> </text>
</g>
<!-- 6&#45;&#45;7 -->
<g id="edge30" class="edge"><title>6&#45;&#45;7</title>
<path fill="none" stroke="black" stroke-width="3" d="M596.796,-599.138C620.141,-609.175 650.241,-622.116 672.879,-631.849"/>
<text text-anchor="middle" x="633.103" y="-620.607" font-family="Times,serif" font-size="15.00"> </text>
</g>
<!-- 9 -->
<g id="node15" class="node"><title>9</title>
<polygon fill="white" stroke="black" points="778.112,-833.686 706.112,-833.686 706.112,-797.686 778.112,-797.686 778.112,-833.686"/>
<text text-anchor="middle" x="742.112" y="-812.186" font-family="Times,serif" font-size="15.00">9</text>
</g>
<!-- 9&#45;&#45;24 -->
<g id="edge34" class="edge"><title>9&#45;&#45;24</title>
<path fill="none" stroke="black" stroke-width="3" d="M752.448,-797.475C769.734,-767.015 804.325,-706.063 821.716,-675.42"/>
<text text-anchor="middle" x="785.043" y="-741.516" font-family="Times,serif" font-size="15.00"> </text>
</g>
<!-- 15 -->
<g id="node18" class="node"><title>15</title>
<polygon fill="white" stroke="black" points="586.72,-845.629 514.72,-845.629 514.72,-809.629 586.72,-809.629 586.72,-845.629"/>
<text text-anchor="middle" x="550.72" y="-824.129" font-family="Times,serif" font-size="15.00">15</text>
</g>
<!-- 9&#45;&#45;15 -->
<g id="edge32" class="edge"><title>9&#45;&#45;15</title>
<path fill="none" stroke="black" stroke-width="3" d="M705.663,-817.96C671.607,-820.085 621.047,-823.24 587.035,-825.363"/>
<text text-anchor="middle" x="644.332" y="-826.663" font-family="Times,serif" font-size="15.00"> </text>
</g>
<!-- 18 -->
<g id="node22" class="node"><title>18</title>
<polygon fill="white" stroke="black" points="912.445,-930.611 840.445,-930.611 840.445,-894.611 912.445,-894.611 912.445,-930.611"/>
<text text-anchor="middle" x="876.445" y="-909.111" font-family="Times,serif" font-size="15.00">18</text>
</g>
<!-- 9&#45;&#45;18 -->
<g id="edge33" class="edge"><title>9&#45;&#45;18</title>
<path fill="none" stroke="black" stroke-width="3" d="M767.064,-833.689C791.041,-850.989 827.086,-876.998 851.17,-894.375"/>
<text text-anchor="middle" x="807.077" y="-869.003" font-family="Times,serif" font-size="15.00"> </text>
</g>
<!-- 13 -->
<g id="node16" class="node"><title>13</title>
<polygon fill="white" stroke="black" points="436.289,-1120.77 364.289,-1120.77 364.289,-1084.77 436.289,-1084.77 436.289,-1120.77"/>
<text text-anchor="middle" x="400.289" y="-1099.27" font-family="Times,serif" font-size="15.00">13</text>
</g>
<!-- 13&#45;&#45;21 -->
<g id="edge8" class="edge"><title>13&#45;&#45;21</title>
<path fill="none" stroke="black" stroke-width="3" d="M436.371,-1112.17C453.231,-1116.57 473.256,-1121.78 490.116,-1126.18"/>
<text text-anchor="middle" x="461.243" y="-1124.17" font-family="Times,serif" font-size="15.00"> </text>
</g>
<!-- 14 -->
<g id="node19" class="node"><title>14</title>
<polygon fill="white" stroke="black" points="341.19,-1045.34 269.19,-1045.34 269.19,-1009.34 341.19,-1009.34 341.19,-1045.34"/>
<text text-anchor="middle" x="305.19" y="-1023.84" font-family="Times,serif" font-size="15.00">14</text>
</g>
<!-- 13&#45;&#45;14 -->
<g id="edge7" class="edge"><title>13&#45;&#45;14</title>
<path fill="none" stroke="black" stroke-width="3" d="M377.268,-1084.51C362.316,-1072.65 342.908,-1057.26 327.999,-1045.43"/>
<text text-anchor="middle" x="350.617" y="-1069.96" font-family="Times,serif" font-size="15.00"> </text>
</g>
<!-- 12 -->
<g id="node17" class="node"><title>12</title>
<polygon fill="white" stroke="black" points="502.433,-995.993 438.433,-995.993 438.433,-959.993 502.433,-959.993 502.433,-995.993"/>
<text text-anchor="middle" x="470.433" y="-974.493" font-family="Times,serif" font-size="15.00">12</text>
</g>
<!-- 12&#45;&#45;21 -->
<g id="edge6" class="edge"><title>12&#45;&#45;21</title>
<path fill="none" stroke="black" stroke-width="3" d="M476.831,-996.07C487.531,-1026.31 508.943,-1086.81 519.708,-1117.23"/>
<text text-anchor="middle" x="496.245" y="-1061.58" font-family="Times,serif" font-size="15.00"> </text>
</g>
<!-- 12&#45;&#45;13 -->
<g id="edge3" class="edge"><title>12&#45;&#45;13</title>
<path fill="none" stroke="black" stroke-width="3" d="M460.234,-996.138C446.935,-1019.8 423.806,-1060.94 410.501,-1084.61"/>
<text text-anchor="middle" x="433.37" y="-1045.37" font-family="Times,serif" font-size="15.00"> </text>
</g>
<!-- 12&#45;&#45;15 -->
<g id="edge5" class="edge"><title>12&#45;&#45;15</title>
<path fill="none" stroke="black" stroke-width="3" d="M480.118,-959.856C495.549,-930.955 525.548,-874.772 541.002,-845.831"/>
<text text-anchor="middle" x="508.551" y="-907.859" font-family="Times,serif" font-size="15.00"> </text>
</g>
<!-- 12&#45;&#45;14 -->
<g id="edge4" class="edge"><title>12&#45;&#45;14</title>
<path fill="none" stroke="black" stroke-width="3" d="M438.18,-987.625C410.379,-995.927 370.274,-1007.9 341.383,-1016.53"/>
<text text-anchor="middle" x="388.19" y="-1006.96" font-family="Times,serif" font-size="15.00"> </text>
</g>
<!-- 15&#45;&#45;27 -->
<g id="edge9" class="edge"><title>15&#45;&#45;27</title>
<path fill="none" stroke="black" stroke-width="3" d="M539.743,-809.327C521.283,-778.55 484.245,-716.801 465.872,-686.168"/>
<text text-anchor="middle" x="500.775" y="-752.693" font-family="Times,serif" font-size="15.00"> </text>
</g>
<!-- 17&#45;&#45;28 -->
<g id="edge11" class="edge"><title>17&#45;&#45;28</title>
<path fill="none" stroke="black" stroke-width="3" d="M393.695,-381.707C393.62,-353.074 393.477,-297.982 393.403,-269.258"/>
<text text-anchor="middle" x="391.549" y="-330.517" font-family="Times,serif" font-size="15.00"> </text>
</g>
<!-- 16&#45;&#45;32 -->
<g id="edge10" class="edge"><title>16&#45;&#45;32</title>
<path fill="none" stroke="black" stroke-width="3" d="M665.675,-402.719C688.093,-383.846 722.908,-354.535 745.246,-335.729"/>
<text text-anchor="middle" x="703.49" y="-374.199" font-family="Times,serif" font-size="15.00"> </text>
</g>
<!-- 31 -->
<g id="node23" class="node"><title>31</title>
<polygon fill="white" stroke="black" points="968.853,-344.153 901.853,-344.153 901.853,-308.153 968.853,-308.153 968.853,-344.153"/>
<text text-anchor="middle" x="935.353" y="-322.653" font-family="Times,serif" font-size="15.00">31</text>
</g>
<!-- 31&#45;&#45;32 -->
<g id="edge20" class="edge"><title>31&#45;&#45;32</title>
<path fill="none" stroke="black" stroke-width="3" d="M901.624,-324.46C872.492,-322.999 830.578,-320.896 801.212,-319.423"/>
<text text-anchor="middle" x="849.506" y="-326.946" font-family="Times,serif" font-size="15.00"> </text>
</g>
<!-- 30&#45;&#45;32 -->
<g id="edge19" class="edge"><title>30&#45;&#45;32</title>
<path fill="none" stroke="black" stroke-width="3" d="M795.478,-162.769C789.296,-196.018 776.244,-266.213 770.06,-299.474"/>
<text text-anchor="middle" x="780.77" y="-236.117" font-family="Times,serif" font-size="15.00"> </text>
</g>
<!-- 30&#45;&#45;32 -->
<g id="edge41" class="edge"><title>30&#45;&#45;32</title>
<path fill="none" stroke="chartreuse" stroke-width="5" stroke-dasharray="5,2" d="M795.478,-162.769C789.296,-196.018 776.244,-266.213 770.06,-299.474"/>
<text text-anchor="middle" x="743.77" y="-221.517" font-family="Times,serif" font-size="12.00" fill="#0000cd">VHG1→CDN1</text>
</g>
<!-- S1 -->
<g id="node28" class="node"><title>S1</title>
<ellipse fill="green" stroke="black" cx="786.615" cy="-22" rx="18" ry="18"/>
<ellipse fill="none" stroke="black" cx="786.615" cy="-22" rx="22" ry="22"/>
<text text-anchor="middle" x="786.615" y="-18.9" font-family="Times,serif" font-size="12.00">S1</text>
</g>
<!-- 30&#45;&#45;S1 -->
<g id="edge35" class="edge"><title>30&#45;&#45;S1</title>
<path fill="none" stroke="blue" d="M797.055,-126.483C794.873,-104.642 791.202,-67.9046 788.845,-44.3207"/>
<text text-anchor="middle" x="791.015" y="-89.8553" font-family="Times,serif" font-size="14.00"> </text>
</g>
<!-- vCDN1 -->
<g id="node29" class="node"><title>vCDN1</title>
<ellipse fill="#c1cdcd" stroke="black" cx="922.847" cy="-143.275" rx="33.7152" ry="33.7152"/>
<text text-anchor="middle" x="922.847" y="-140.175" font-family="Times,serif" font-size="12.00">vCDN1</text>
</g>
<!-- 30&#45;&#45;vCDN1 -->
<g id="edge36" class="edge"><title>30&#45;&#45;vCDN1</title>
<path fill="none" stroke="blue" d="M834.391,-144.198C851.422,-144.021 871.733,-143.809 888.595,-143.633"/>
<text text-anchor="middle" x="859.556" y="-147.715" font-family="Times,serif" font-size="14.00"> </text>
</g>
<!-- VHG1 -->
<g id="node30" class="node"><title>VHG1</title>
<ellipse fill="#f0ffff" stroke="black" cx="880.987" cy="-55.1513" rx="30.5603" ry="30.5603"/>
<text text-anchor="middle" x="880.987" y="-52.0513" font-family="Times,serif" font-size="12.00">VHG1</text>
</g>
<!-- 30&#45;&#45;VHG1 -->
<g id="edge37" class="edge"><title>30&#45;&#45;VHG1</title>
<path fill="none" stroke="blue" d="M815.482,-126.474C828.324,-112.491 846.181,-93.0483 860.008,-77.9936"/>
<text text-anchor="middle" x="835.375" y="-106.436" font-family="Times,serif" font-size="14.00"> </text>
</g>
<!-- 36&#45;&#45;37 -->
<g id="edge24" class="edge"><title>36&#45;&#45;37</title>
<path fill="none" stroke="black" stroke-width="3" d="M465.1,-37.6593C443.876,-48.1628 417.157,-61.3853 396.125,-71.7936"/>
<text text-anchor="middle" x="428.541" y="-59.7621" font-family="Times,serif" font-size="15.00"> </text>
</g>
<!-- 32&#45;&#45;0 -->
<g id="edge43" class="edge"><title>32&#45;&#45;0</title>
<path fill="none" stroke="chartreuse" stroke-width="5" stroke-dasharray="5,2" d="M731.991,-303.589C701.517,-291.199 657.364,-273.247 626.644,-260.757"/>
<text text-anchor="middle" x="640.41" y="-272.61" font-family="Times,serif" font-size="12.00" fill="#0000cd">VHG1→CDN1</text>
</g>
</g>
</svg>
