<?xml version="1.0" encoding="UTF-8" standalone="no"?>
<!DOCTYPE svg PUBLIC "-//W3C//DTD SVG 1.1//EN"
 "http://www.w3.org/Graphics/SVG/1.1/DTD/svg11.dtd">
<!-- Generated by graphviz version 2.36.0 (20140111.2315)
 -->
<!-- Title: %3 Pages: 1 -->
<svg width="1061pt" height="1196pt"
 viewBox="0.00 0.00 1060.68 1195.85" xmlns="http://www.w3.org/2000/svg" xmlns:xlink="http://www.w3.org/1999/xlink">
<g id="graph0" class="graph" transform="scale(1 1) rotate(0) translate(4 1191.85)">
<title>%3</title>
<polygon fill="white" stroke="none" points="-4,4 -4,-1191.85 1056.68,-1191.85 1056.68,4 -4,4"/>
<!-- 24 -->
<g id="node1" class="node"><title>24</title>
<polygon fill="none" stroke="black" points="731.181,-888.778 662.181,-888.778 662.181,-852.778 731.181,-852.778 731.181,-888.778"/>
<text text-anchor="middle" x="696.681" y="-867.278" font-family="Times,serif" font-size="15.00">24</text>
</g>
<!-- 25 -->
<g id="node2" class="node"><title>25</title>
<polygon fill="none" stroke="black" points="126.276,-1187.85 54.2762,-1187.85 54.2762,-1151.85 126.276,-1151.85 126.276,-1187.85"/>
<text text-anchor="middle" x="90.2762" y="-1166.35" font-family="Times,serif" font-size="15.00">25</text>
</g>
<!-- 27 -->
<g id="node3" class="node"><title>27</title>
<polygon fill="none" stroke="black" points="445.331,-639.026 373.331,-639.026 373.331,-603.026 445.331,-603.026 445.331,-639.026"/>
<text text-anchor="middle" x="409.331" y="-617.526" font-family="Times,serif" font-size="15.00">27</text>
</g>
<!-- 4 -->
<g id="node12" class="node"><title>4</title>
<polygon fill="none" stroke="#00ff00" points="570.764,-486.779 502.764,-486.779 502.764,-450.779 570.764,-450.779 570.764,-486.779"/>
<text text-anchor="middle" x="536.764" y="-465.279" font-family="Times,serif" font-size="15.00">4</text>
</g>
<!-- 27&#45;&#45;4 -->
<g id="edge48" class="edge"><title>27&#45;&#45;4</title>
<path fill="none" stroke="#0000cd" stroke-dasharray="5,2" d="M430.766,-602.966C458.837,-573.662 506.539,-516.377 527.109,-486.979"/>
<text text-anchor="middle" x="499.437" y="-547.572" font-family="Times,serif" font-size="8.00" fill="#0000cd">S3&#45;&#45;&gt;VHG1</text>
</g>
<!-- 21 -->
<g id="node4" class="node"><title>21</title>
<polygon fill="none" stroke="black" points="194.578,-1049.21 122.578,-1049.21 122.578,-1013.21 194.578,-1013.21 194.578,-1049.21"/>
<text text-anchor="middle" x="158.578" y="-1027.71" font-family="Times,serif" font-size="15.00">21</text>
</g>
<!-- 21&#45;&#45;25 -->
<g id="edge12" class="edge"><title>21&#45;&#45;25</title>
<path fill="none" stroke="black" stroke-width="3" d="M149.649,-1049.34C136.559,-1075.91 112.299,-1125.15 99.2078,-1151.72"/>
</g>
<!-- 23 -->
<g id="node5" class="node"><title>23</title>
<polygon fill="none" stroke="black" points="874.28,-762.52 803.28,-762.52 803.28,-726.52 874.28,-726.52 874.28,-762.52"/>
<text text-anchor="middle" x="838.78" y="-741.02" font-family="Times,serif" font-size="15.00">23</text>
</g>
<!-- 23&#45;&#45;24 -->
<g id="edge15" class="edge"><title>23&#45;&#45;24</title>
<path fill="none" stroke="black" stroke-width="3" d="M818.421,-762.61C791.408,-786.612 743.996,-828.738 717.002,-852.722"/>
</g>
<!-- 32 -->
<g id="node27" class="node"><title>32</title>
<polygon fill="none" stroke="black" points="894.978,-571.473 822.978,-571.473 822.978,-535.473 894.978,-535.473 894.978,-571.473"/>
<text text-anchor="middle" x="858.978" y="-549.973" font-family="Times,serif" font-size="15.00">32</text>
</g>
<!-- 23&#45;&#45;32 -->
<g id="edge16" class="edge"><title>23&#45;&#45;32</title>
<path fill="none" stroke="black" stroke-width="3" d="M840.717,-726.202C844.577,-689.685 853.191,-608.207 857.047,-571.736"/>
</g>
<!-- 28 -->
<g id="node6" class="node"><title>28</title>
<polygon fill="none" stroke="black" points="689.532,-249.215 622.532,-249.215 622.532,-213.215 689.532,-213.215 689.532,-249.215"/>
<text text-anchor="middle" x="656.032" y="-227.715" font-family="Times,serif" font-size="15.00">28</text>
</g>
<!-- 37 -->
<g id="node25" class="node"><title>37</title>
<polygon fill="none" stroke="black" points="761.949,-103.657 689.949,-103.657 689.949,-67.6575 761.949,-67.6575 761.949,-103.657"/>
<text text-anchor="middle" x="725.949" y="-82.1575" font-family="Times,serif" font-size="15.00">37</text>
</g>
<!-- 28&#45;&#45;37 -->
<g id="edge18" class="edge"><title>28&#45;&#45;37</title>
<path fill="none" stroke="black" stroke-width="3" d="M664.746,-213.075C678.144,-185.182 703.662,-132.057 717.125,-104.027"/>
</g>
<!-- 29 -->
<g id="node7" class="node"><title>29</title>
<polygon fill="none" stroke="black" points="729.309,-398.002 657.309,-398.002 657.309,-362.002 729.309,-362.002 729.309,-398.002"/>
<text text-anchor="middle" x="693.309" y="-376.502" font-family="Times,serif" font-size="15.00">29</text>
</g>
<!-- 2 -->
<g id="node10" class="node"><title>2</title>
<polygon fill="none" stroke="#ff0000" points="907.178,-318.573 839.178,-318.573 839.178,-282.573 907.178,-282.573 907.178,-318.573"/>
<text text-anchor="middle" x="873.178" y="-297.073" font-family="Times,serif" font-size="15.00">2</text>
</g>
<!-- 29&#45;&#45;2 -->
<g id="edge49" class="edge"><title>29&#45;&#45;2</title>
<path fill="none" stroke="#0000cd" stroke-dasharray="5,2" d="M729.327,-370.013C763.456,-356.97 813.972,-334.582 845.182,-318.611"/>
<text text-anchor="middle" x="760.254" y="-346.912" font-family="Times,serif" font-size="8.00" fill="#0000cd">VHG1&#45;&#45;&gt;CDN1</text>
</g>
<!-- 0 -->
<g id="node8" class="node"><title>0</title>
<polygon fill="none" stroke="black" points="846.825,-393.652 775.825,-393.652 775.825,-357.652 846.825,-357.652 846.825,-393.652"/>
<text text-anchor="middle" x="811.325" y="-372.152" font-family="Times,serif" font-size="15.00">0</text>
</g>
<!-- 0&#45;&#45;28 -->
<g id="edge1" class="edge"><title>0&#45;&#45;28</title>
<path fill="none" stroke="black" stroke-width="3" d="M791.971,-357.651C762.213,-329.973 705.535,-277.257 675.63,-249.443"/>
</g>
<!-- 0&#45;&#45;32 -->
<g id="edge2" class="edge"><title>0&#45;&#45;32</title>
<path fill="none" stroke="black" stroke-width="3" d="M816.157,-393.681C825.29,-427.763 844.99,-501.277 854.134,-535.396"/>
</g>
<!-- 3 -->
<g id="node9" class="node"><title>3</title>
<polygon fill="none" stroke="#00ff00" points="513.069,-298.794 452.069,-298.794 452.069,-262.794 513.069,-262.794 513.069,-298.794"/>
<text text-anchor="middle" x="482.569" y="-277.294" font-family="Times,serif" font-size="15.00">3</text>
</g>
<!-- 3&#45;&#45;28 -->
<g id="edge21" class="edge"><title>3&#45;&#45;28</title>
<path fill="none" stroke="black" stroke-width="3" d="M513.181,-272.045C543.819,-263.288 590.829,-249.852 622.469,-240.808"/>
</g>
<!-- 5 -->
<g id="node11" class="node"><title>5</title>
<polygon fill="none" stroke="black" points="434.678,-150.831 366.678,-150.831 366.678,-114.831 434.678,-114.831 434.678,-150.831"/>
<text text-anchor="middle" x="400.678" y="-129.331" font-family="Times,serif" font-size="15.00">5</text>
</g>
<!-- 3&#45;&#45;5 -->
<g id="edge23" class="edge"><title>3&#45;&#45;5</title>
<path fill="none" stroke="black" stroke-width="3" d="M472.527,-262.651C456.81,-234.253 426.569,-179.612 410.801,-151.123"/>
</g>
<!-- 3&#45;&#45;4 -->
<g id="edge22" class="edge"><title>3&#45;&#45;4</title>
<path fill="none" stroke="black" stroke-width="3" d="M483.553,-298.939C490.289,-334.881 513.219,-414.682 527.055,-450.629"/>
</g>
<!-- 3&#45;&#45;4 -->
<g id="edge45" class="edge"><title>3&#45;&#45;4</title>
<path fill="none" stroke="#0000cd" stroke-dasharray="5,2" d="M492.303,-299.011C506.129,-334.956 529.005,-414.567 535.76,-450.535"/>
<text text-anchor="middle" x="493.532" y="-377.373" font-family="Times,serif" font-size="8.00" fill="#0000cd">S1&#45;&#45;&gt;VHG1</text>
</g>
<!-- S1 -->
<g id="node30" class="node"><title>S1</title>
<ellipse fill="green" stroke="black" cx="369.448" cy="-237.876" rx="18" ry="18"/>
<text text-anchor="middle" x="369.448" y="-234.776" font-family="Times,serif" font-size="12.00">S1</text>
</g>
<!-- 3&#45;&#45;S1 -->
<g id="edge37" class="edge"><title>3&#45;&#45;S1</title>
<path fill="none" stroke="red" d="M451.957,-269.18C430.888,-261.186 403.685,-250.866 386.398,-244.307"/>
</g>
<!-- 2&#45;&#45;29 -->
<g id="edge13" class="edge"><title>2&#45;&#45;29</title>
<path fill="none" stroke="black" stroke-width="3" d="M838.874,-309.911C804.739,-322.849 753.032,-345.728 721.297,-361.969"/>
</g>
<!-- 30 -->
<g id="node24" class="node"><title>30</title>
<polygon fill="none" stroke="black" points="1016.26,-460.817 944.262,-460.817 944.262,-424.817 1016.26,-424.817 1016.26,-460.817"/>
<text text-anchor="middle" x="980.262" y="-439.317" font-family="Times,serif" font-size="15.00">30</text>
</g>
<!-- 2&#45;&#45;30 -->
<g id="edge14" class="edge"><title>2&#45;&#45;30</title>
<path fill="none" stroke="black" stroke-width="3" d="M886.74,-318.588C907.226,-345.8 945.852,-397.109 966.471,-424.498"/>
</g>
<!-- 36 -->
<g id="node26" class="node"><title>36</title>
<polygon fill="none" stroke="#ff0000" points="909.754,-143.011 837.754,-143.011 837.754,-107.011 909.754,-107.011 909.754,-143.011"/>
<text text-anchor="middle" x="873.754" y="-121.511" font-family="Times,serif" font-size="15.00">36</text>
</g>
<!-- 2&#45;&#45;36 -->
<g id="edge17" class="edge"><title>2&#45;&#45;36</title>
<path fill="none" stroke="black" stroke-width="3" d="M877.545,-282.46C880.915,-248.742 881.149,-176.719 877.993,-143.054"/>
</g>
<!-- 2&#45;&#45;36 -->
<g id="edge44" class="edge"><title>2&#45;&#45;36</title>
<path fill="none" stroke="#0000cd" stroke-dasharray="5,2" d="M868.93,-282.432C865.781,-248.692 866.021,-176.669 869.397,-143.025"/>
<text text-anchor="middle" x="842.164" y="-215.329" font-family="Times,serif" font-size="8.00" fill="#0000cd">VHG1&#45;&#45;&gt;CDN1</text>
</g>
<!-- CDN2 -->
<g id="node29" class="node"><title>CDN2</title>
<ellipse fill="red" stroke="black" cx="989.908" cy="-274.651" rx="30.3284" ry="30.3284"/>
<text text-anchor="middle" x="989.908" y="-271.551" font-family="Times,serif" font-size="12.00">CDN2</text>
</g>
<!-- 2&#45;&#45;CDN2 -->
<g id="edge36" class="edge"><title>2&#45;&#45;CDN2</title>
<path fill="none" stroke="red" d="M907.255,-293.006C924.078,-289.27 944.178,-284.806 960.344,-281.216"/>
</g>
<!-- 4&#45;&#45;27 -->
<g id="edge27" class="edge"><title>4&#45;&#45;27</title>
<path fill="none" stroke="black" stroke-width="3" d="M515.33,-486.839C487.258,-516.143 439.556,-573.428 418.986,-602.827"/>
</g>
<!-- 4&#45;&#45;29 -->
<g id="edge28" class="edge"><title>4&#45;&#45;29</title>
<path fill="none" stroke="black" stroke-width="3" d="M570.793,-455.834C601.474,-440.484 645.61,-415.266 671.711,-398.037"/>
</g>
<!-- 4&#45;&#45;29 -->
<g id="edge46" class="edge"><title>4&#45;&#45;29</title>
<path fill="none" stroke="#0000cd" stroke-dasharray="5,2" d="M558.397,-450.722C583.883,-433.902 626.53,-409.482 657.075,-394.056"/>
<text text-anchor="middle" x="580.736" y="-424.989" font-family="Times,serif" font-size="8.00" fill="#0000cd">VHG1&#45;&#45;&gt;CDN1</text>
</g>
<!-- 6 -->
<g id="node14" class="node"><title>6</title>
<polygon fill="none" stroke="#00ff00" points="626.329,-634.803 555.329,-634.803 555.329,-598.803 626.329,-598.803 626.329,-634.803"/>
<text text-anchor="middle" x="590.829" y="-613.303" font-family="Times,serif" font-size="15.00">6</text>
</g>
<!-- 4&#45;&#45;6 -->
<g id="edge29" class="edge"><title>4&#45;&#45;6</title>
<path fill="none" stroke="black" stroke-width="3" d="M538.668,-487.003C545.953,-515.536 565.864,-570.338 579.168,-598.759"/>
</g>
<!-- 17 -->
<g id="node20" class="node"><title>17</title>
<polygon fill="none" stroke="black" points="604.023,-350.817 532.023,-350.817 532.023,-314.817 604.023,-314.817 604.023,-350.817"/>
<text text-anchor="middle" x="568.023" y="-329.317" font-family="Times,serif" font-size="15.00">17</text>
</g>
<!-- 4&#45;&#45;17 -->
<g id="edge26" class="edge"><title>4&#45;&#45;17</title>
<path fill="none" stroke="black" stroke-width="3" d="M540.915,-450.725C546.893,-424.72 557.867,-376.992 563.855,-350.946"/>
</g>
<!-- 16 -->
<g id="node21" class="node"><title>16</title>
<polygon fill="none" stroke="black" points="726.105,-542.241 657.105,-542.241 657.105,-506.241 726.105,-506.241 726.105,-542.241"/>
<text text-anchor="middle" x="691.605" y="-520.741" font-family="Times,serif" font-size="15.00">16</text>
</g>
<!-- 4&#45;&#45;16 -->
<g id="edge25" class="edge"><title>4&#45;&#45;16</title>
<path fill="none" stroke="black" stroke-width="3" d="M571.128,-481.088C596.699,-490.247 631.458,-502.697 657.07,-511.871"/>
</g>
<!-- S4 -->
<g id="node32" class="node"><title>S4</title>
<ellipse fill="green" stroke="black" cx="456.091" cy="-406.305" rx="18" ry="18"/>
<text text-anchor="middle" x="456.091" y="-403.205" font-family="Times,serif" font-size="12.00">S4</text>
</g>
<!-- 4&#45;&#45;S4 -->
<g id="edge39" class="edge"><title>4&#45;&#45;S4</title>
<path fill="none" stroke="red" d="M513.43,-450.709C499.656,-440.042 482.644,-426.868 470.741,-417.65"/>
</g>
<!-- vCDN1 -->
<g id="node33" class="node"><title>vCDN1</title>
<ellipse fill="#c1cdcd" stroke="black" cx="460.839" cy="-512.447" rx="33.7152" ry="33.7152"/>
<text text-anchor="middle" x="460.839" y="-509.347" font-family="Times,serif" font-size="12.00">vCDN1</text>
</g>
<!-- 4&#45;&#45;vCDN1 -->
<g id="edge40" class="edge"><title>4&#45;&#45;vCDN1</title>
<path fill="none" stroke="red" d="M505.444,-486.793C500.542,-489.612 495.488,-492.519 490.622,-495.317"/>
</g>
<!-- VHG1 -->
<g id="node34" class="node"><title>VHG1</title>
<ellipse fill="#f0ffff" stroke="black" cx="404.988" cy="-450.995" rx="30.5603" ry="30.5603"/>
<text text-anchor="middle" x="404.988" y="-447.895" font-family="Times,serif" font-size="12.00">VHG1</text>
</g>
<!-- 4&#45;&#45;VHG1 -->
<g id="edge41" class="edge"><title>4&#45;&#45;VHG1</title>
<path fill="none" stroke="red" d="M502.485,-464.153C481.743,-461.354 455.523,-457.815 435.5,-455.113"/>
</g>
<!-- 7 -->
<g id="node13" class="node"><title>7</title>
<polygon fill="none" stroke="black" points="660.104,-793.454 591.104,-793.454 591.104,-757.454 660.104,-757.454 660.104,-793.454"/>
<text text-anchor="middle" x="625.604" y="-771.954" font-family="Times,serif" font-size="15.00">7</text>
</g>
<!-- 7&#45;&#45;24 -->
<g id="edge31" class="edge"><title>7&#45;&#45;24</title>
<path fill="none" stroke="black" stroke-width="3" d="M639.309,-793.833C651.895,-810.713 670.446,-835.593 683.018,-852.455"/>
</g>
<!-- 6&#45;&#45;4 -->
<g id="edge47" class="edge"><title>6&#45;&#45;4</title>
<path fill="none" stroke="#0000cd" stroke-dasharray="5,2" d="M588.924,-598.58C581.639,-570.047 561.729,-515.245 548.424,-486.824"/>
<text text-anchor="middle" x="548.174" y="-545.302" font-family="Times,serif" font-size="8.00" fill="#0000cd">S2&#45;&#45;&gt;VHG1</text>
</g>
<!-- 6&#45;&#45;7 -->
<g id="edge30" class="edge"><title>6&#45;&#45;7</title>
<path fill="none" stroke="black" stroke-width="3" d="M594.818,-635.003C601.49,-665.443 614.842,-726.354 621.555,-756.978"/>
</g>
<!-- S2 -->
<g id="node35" class="node"><title>S2</title>
<ellipse fill="green" stroke="black" cx="692.653" cy="-670.693" rx="18" ry="18"/>
<text text-anchor="middle" x="692.653" y="-667.593" font-family="Times,serif" font-size="12.00">S2</text>
</g>
<!-- 6&#45;&#45;S2 -->
<g id="edge42" class="edge"><title>6&#45;&#45;S2</title>
<path fill="none" stroke="red" d="M625.018,-634.898C642.466,-644.132 662.863,-654.926 676.659,-662.227"/>
</g>
<!-- 9 -->
<g id="node15" class="node"><title>9</title>
<polygon fill="none" stroke="black" points="547.335,-936.213 475.335,-936.213 475.335,-900.213 547.335,-900.213 547.335,-936.213"/>
<text text-anchor="middle" x="511.335" y="-914.713" font-family="Times,serif" font-size="15.00">9</text>
</g>
<!-- 9&#45;&#45;24 -->
<g id="edge34" class="edge"><title>9&#45;&#45;24</title>
<path fill="none" stroke="black" stroke-width="3" d="M547.511,-908.955C580.697,-900.462 629.511,-887.969 662.162,-879.613"/>
</g>
<!-- 15 -->
<g id="node18" class="node"><title>15</title>
<polygon fill="none" stroke="#00ff00" points="401.997,-814.847 329.997,-814.847 329.997,-778.847 401.997,-778.847 401.997,-814.847"/>
<text text-anchor="middle" x="365.997" y="-793.347" font-family="Times,serif" font-size="15.00">15</text>
</g>
<!-- 9&#45;&#45;15 -->
<g id="edge32" class="edge"><title>9&#45;&#45;15</title>
<path fill="none" stroke="black" stroke-width="3" d="M489.576,-900.043C462.177,-877.163 415.374,-838.079 387.905,-815.141"/>
</g>
<!-- 18 -->
<g id="node22" class="node"><title>18</title>
<polygon fill="none" stroke="black" points="583.779,-1097.59 517.779,-1097.59 517.779,-1061.59 583.779,-1061.59 583.779,-1097.59"/>
<text text-anchor="middle" x="550.779" y="-1076.09" font-family="Times,serif" font-size="15.00">18</text>
</g>
<!-- 9&#45;&#45;18 -->
<g id="edge33" class="edge"><title>9&#45;&#45;18</title>
<path fill="none" stroke="black" stroke-width="3" d="M515.783,-936.411C523.359,-967.405 538.681,-1030.09 546.287,-1061.21"/>
</g>
<!-- 13 -->
<g id="node16" class="node"><title>13</title>
<polygon fill="none" stroke="black" points="105.866,-950.309 33.8657,-950.309 33.8657,-914.309 105.866,-914.309 105.866,-950.309"/>
<text text-anchor="middle" x="69.8657" y="-928.809" font-family="Times,serif" font-size="15.00">13</text>
</g>
<!-- 13&#45;&#45;21 -->
<g id="edge8" class="edge"><title>13&#45;&#45;21</title>
<path fill="none" stroke="black" stroke-width="3" d="M86.137,-950.449C102.144,-968.295 126.439,-995.382 142.41,-1013.19"/>
</g>
<!-- 14 -->
<g id="node19" class="node"><title>14</title>
<polygon fill="none" stroke="black" points="72,-832.451 0,-832.451 0,-796.451 72,-796.451 72,-832.451"/>
<text text-anchor="middle" x="36" y="-810.951" font-family="Times,serif" font-size="15.00">14</text>
</g>
<!-- 13&#45;&#45;14 -->
<g id="edge7" class="edge"><title>13&#45;&#45;14</title>
<path fill="none" stroke="black" stroke-width="3" d="M64.6484,-914.152C58.3029,-892.069 47.6522,-855.002 41.279,-832.823"/>
</g>
<!-- 12 -->
<g id="node17" class="node"><title>12</title>
<polygon fill="none" stroke="black" points="238.344,-894.065 169.344,-894.065 169.344,-858.065 238.344,-858.065 238.344,-894.065"/>
<text text-anchor="middle" x="203.844" y="-872.565" font-family="Times,serif" font-size="15.00">12</text>
</g>
<!-- 12&#45;&#45;21 -->
<g id="edge6" class="edge"><title>12&#45;&#45;21</title>
<path fill="none" stroke="black" stroke-width="3" d="M198.563,-894.166C189.887,-923.901 172.711,-982.773 163.966,-1012.75"/>
</g>
<!-- 12&#45;&#45;13 -->
<g id="edge3" class="edge"><title>12&#45;&#45;13</title>
<path fill="none" stroke="black" stroke-width="3" d="M169.341,-890.549C149.958,-898.686 125.787,-908.833 106.125,-917.087"/>
</g>
<!-- 12&#45;&#45;15 -->
<g id="edge5" class="edge"><title>12&#45;&#45;15</title>
<path fill="none" stroke="black" stroke-width="3" d="M238.63,-859.07C265.524,-845.932 302.637,-827.8 329.865,-814.499"/>
</g>
<!-- 12&#45;&#45;14 -->
<g id="edge4" class="edge"><title>12&#45;&#45;14</title>
<path fill="none" stroke="black" stroke-width="3" d="M169.066,-863.298C140.74,-852.9 100.881,-838.268 72.1823,-827.733"/>
</g>
<!-- 15&#45;&#45;27 -->
<g id="edge9" class="edge"><title>15&#45;&#45;27</title>
<path fill="none" stroke="black" stroke-width="3" d="M374.991,-778.749C386.607,-744.982 404.328,-672.799 409.207,-639.071"/>
</g>
<!-- 15&#45;&#45;27 -->
<g id="edge43" class="edge"><title>15&#45;&#45;27</title>
<path fill="none" stroke="#0000cd" stroke-dasharray="5,2" d="M366.142,-778.66C371.053,-744.857 388.753,-672.779 400.353,-639.078"/>
<text text-anchor="middle" x="362.748" y="-711.469" font-family="Times,serif" font-size="8.00" fill="#0000cd">S3&#45;&#45;&gt;VHG1</text>
</g>
<!-- S3 -->
<g id="node28" class="node"><title>S3</title>
<ellipse fill="green" stroke="black" cx="268.017" cy="-760.811" rx="18" ry="18"/>
<text text-anchor="middle" x="268.017" y="-757.711" font-family="Times,serif" font-size="12.00">S3</text>
</g>
<!-- 15&#45;&#45;S3 -->
<g id="edge35" class="edge"><title>15&#45;&#45;S3</title>
<path fill="none" stroke="red" d="M329.792,-783.531C314.528,-777.917 297.484,-771.648 285.172,-767.12"/>
</g>
<!-- 17&#45;&#45;28 -->
<g id="edge11" class="edge"><title>17&#45;&#45;28</title>
<path fill="none" stroke="black" stroke-width="3" d="M583.757,-314.652C599.777,-296.159 624.464,-267.659 640.434,-249.222"/>
</g>
<!-- 16&#45;&#45;32 -->
<g id="edge10" class="edge"><title>16&#45;&#45;32</title>
<path fill="none" stroke="black" stroke-width="3" d="M726.285,-530.298C754.531,-535.231 794.279,-542.173 822.897,-547.171"/>
</g>
<!-- 31 -->
<g id="node23" class="node"><title>31</title>
<polygon fill="none" stroke="black" points="1052.68,-639.321 980.682,-639.321 980.682,-603.321 1052.68,-603.321 1052.68,-639.321"/>
<text text-anchor="middle" x="1016.68" y="-617.821" font-family="Times,serif" font-size="15.00">31</text>
</g>
<!-- 31&#45;&#45;32 -->
<g id="edge20" class="edge"><title>31&#45;&#45;32</title>
<path fill="none" stroke="black" stroke-width="3" d="M980.502,-605.756C954.857,-594.723 920.596,-579.983 894.99,-568.966"/>
</g>
<!-- 30&#45;&#45;32 -->
<g id="edge19" class="edge"><title>30&#45;&#45;32</title>
<path fill="none" stroke="black" stroke-width="3" d="M960.505,-460.842C937.952,-481.419 901.276,-514.881 878.726,-535.456"/>
</g>
<!-- 36&#45;&#45;37 -->
<g id="edge24" class="edge"><title>36&#45;&#45;37</title>
<path fill="none" stroke="black" stroke-width="3" d="M837.597,-115.384C814.607,-109.263 784.956,-101.368 761.989,-95.2532"/>
</g>
<!-- CDN1 -->
<g id="node31" class="node"><title>CDN1</title>
<ellipse fill="red" stroke="black" cx="942.046" cy="-30.1638" rx="30.3284" ry="30.3284"/>
<text text-anchor="middle" x="942.046" y="-27.0638" font-family="Times,serif" font-size="12.00">CDN1</text>
</g>
<!-- 36&#45;&#45;CDN1 -->
<g id="edge38" class="edge"><title>36&#45;&#45;CDN1</title>
<path fill="none" stroke="red" d="M886.922,-106.724C897.542,-91.9739 912.582,-71.0849 924.271,-54.8517"/>
</g>
</g>
</svg>
