<?xml version="1.0" encoding="UTF-8" standalone="no"?>
<!DOCTYPE svg PUBLIC "-//W3C//DTD SVG 1.1//EN"
 "http://www.w3.org/Graphics/SVG/1.1/DTD/svg11.dtd">
<!-- Generated by graphviz version 2.36.0 (20140111.2315)
 -->
<!-- Title: %3 Pages: 1 -->
<svg width="560pt" height="424pt"
 viewBox="0.00 0.00 560.11 424.11" xmlns="http://www.w3.org/2000/svg" xmlns:xlink="http://www.w3.org/1999/xlink">
<g id="graph0" class="graph" transform="scale(1 1) rotate(0) translate(4 420.108)">
<title>%3</title>
<polygon fill="white" stroke="none" points="-4,4 -4,-420.108 556.114,-420.108 556.114,4 -4,4"/>
<!-- 0202 -->
<g id="node1" class="node"><title>0202</title>
<polygon fill="none" stroke="black" points="330.879,-291.204 258.879,-291.204 258.879,-255.204 330.879,-255.204 330.879,-291.204"/>
<text text-anchor="middle" x="294.879" y="-269.704" font-family="Times,serif" font-size="15.00">0202</text>
</g>
<!-- 0201 -->
<g id="node2" class="node"><title>0201</title>
<polygon fill="none" stroke="black" points="433.698,-186.758 385.698,-186.758 385.698,-150.758 433.698,-150.758 433.698,-186.758"/>
<text text-anchor="middle" x="409.698" y="-165.258" font-family="Times,serif" font-size="15.00">0201</text>
</g>
<!-- 0202&#45;&#45;0201 -->
<g id="edge12" class="edge"><title>0202&#45;&#45;0201</title>
<path fill="none" stroke="chartreuse" stroke-width="5" stroke-dasharray="5,2" d="M314.879,-255.011C335.825,-235.957 368.538,-206.2 389.542,-187.093"/>
<text text-anchor="middle" x="310.189" y="-224.472" font-family="Times,serif" font-size="12.00" fill="#0000cd">VHG1→vCDN1</text>
</g>
<!-- 0102 -->
<g id="node4" class="node"><title>0102</title>
<polygon fill="none" stroke="#ff0000" points="167.037,-256.638 120.037,-256.638 120.037,-220.638 167.037,-220.638 167.037,-256.638"/>
<text text-anchor="middle" x="143.537" y="-235.138" font-family="Times,serif" font-size="15.00">0102</text>
</g>
<!-- 0202&#45;&#45;0102 -->
<g id="edge11" class="edge"><title>0202&#45;&#45;0102</title>
<path fill="none" stroke="chartreuse" stroke-width="5" stroke-dasharray="5,2" d="M258.629,-264.924C230.296,-258.453 191.733,-249.646 167.233,-244.05"/>
<text text-anchor="middle" x="250.493" y="-244.559" font-family="Times,serif" font-size="12.00" fill="#0000cd">VHG1→CDN1</text>
</g>
<!-- VHG1 -->
<g id="node8" class="node"><title>VHG1</title>
<ellipse fill="#f0ffff" stroke="black" cx="324.417" cy="-385.329" rx="30.5603" ry="30.5603"/>
<text text-anchor="middle" x="324.417" y="-382.229" font-family="Times,serif" font-size="12.00">VHG1</text>
</g>
<!-- 0202&#45;&#45;VHG1 -->
<g id="edge9" class="edge"><title>0202&#45;&#45;VHG1</title>
<path fill="none" stroke="blue" d="M299.625,-291.219C304.191,-308.552 311.177,-335.073 316.571,-355.548"/>
</g>
<!-- 0201&#45;&#45;0202 -->
<g id="edge5" class="edge"><title>0201&#45;&#45;0202</title>
<path fill="none" stroke="black" stroke-width="3" d="M389.698,-186.951C368.752,-206.005 336.039,-235.762 315.035,-254.869"/>
</g>
<!-- vCDN1 -->
<g id="node7" class="node"><title>vCDN1</title>
<ellipse fill="#c1cdcd" stroke="black" cx="518.257" cy="-138.762" rx="33.7152" ry="33.7152"/>
<text text-anchor="middle" x="518.257" y="-135.662" font-family="Times,serif" font-size="12.00">vCDN1</text>
</g>
<!-- 0201&#45;&#45;vCDN1 -->
<g id="edge8" class="edge"><title>0201&#45;&#45;vCDN1</title>
<path fill="none" stroke="blue" d="M433.791,-162.101C449.032,-157.89 468.93,-152.392 485.584,-147.79"/>
</g>
<!-- 0101 -->
<g id="node3" class="node"><title>0101</title>
<polygon fill="none" stroke="#00ff00" points="281.895,-152.175 234.895,-152.175 234.895,-116.175 281.895,-116.175 281.895,-152.175"/>
<text text-anchor="middle" x="258.395" y="-130.675" font-family="Times,serif" font-size="15.00">0101</text>
</g>
<!-- 0101&#45;&#45;0202 -->
<g id="edge3" class="edge"><title>0101&#45;&#45;0202</title>
<path fill="none" stroke="black" stroke-width="3" d="M263.165,-152.35C270.157,-178.995 283.116,-228.376 290.108,-255.024"/>
</g>
<!-- 0101&#45;&#45;0202 -->
<g id="edge10" class="edge"><title>0101&#45;&#45;0202</title>
<path fill="none" stroke="chartreuse" stroke-width="5" stroke-dasharray="5,2" d="M263.165,-152.35C270.157,-178.995 283.116,-228.376 290.108,-255.024"/>
<text text-anchor="middle" x="247.636" y="-207.086" font-family="Times,serif" font-size="12.00" fill="#0000cd">S1→VHG1</text>
</g>
<!-- 0101&#45;&#45;0201 -->
<g id="edge2" class="edge"><title>0101&#45;&#45;0201</title>
<path fill="none" stroke="black" stroke-width="3" d="M282.036,-139.578C310.212,-146.019 357.042,-156.723 385.473,-163.221"/>
</g>
<!-- 0101&#45;&#45;0102 -->
<g id="edge1" class="edge"><title>0101&#45;&#45;0102</title>
<path fill="none" stroke="black" stroke-width="3" d="M238.388,-152.371C217.435,-171.427 184.711,-201.19 163.7,-220.3"/>
</g>
<!-- S1 -->
<g id="node5" class="node"><title>S1</title>
<ellipse fill="green" stroke="black" cx="229.002" cy="-22" rx="18" ry="18"/>
<ellipse fill="none" stroke="black" cx="229.002" cy="-22" rx="22" ry="22"/>
<text text-anchor="middle" x="229.002" y="-18.9" font-family="Times,serif" font-size="12.00">S1</text>
</g>
<!-- 0101&#45;&#45;S1 -->
<g id="edge6" class="edge"><title>0101&#45;&#45;S1</title>
<path fill="none" stroke="blue" d="M253.673,-116.152C248.48,-96.3337 240.141,-64.5102 234.617,-43.4294"/>
</g>
<!-- 0102&#45;&#45;0202 -->
<g id="edge4" class="edge"><title>0102&#45;&#45;0202</title>
<path fill="none" stroke="black" stroke-width="3" d="M167.184,-244.039C191.709,-249.64 230.364,-258.469 258.725,-264.946"/>
</g>
<!-- CDN1 -->
<g id="node6" class="node"><title>CDN1</title>
<ellipse fill="red" stroke="black" cx="34.1638" cy="-265.466" rx="30.309" ry="30.309"/>
<ellipse fill="none" stroke="black" cx="34.1638" cy="-265.466" rx="34.3283" ry="34.3283"/>
<text text-anchor="middle" x="34.1638" y="-262.366" font-family="Times,serif" font-size="12.00">CDN1</text>
</g>
<!-- 0102&#45;&#45;CDN1 -->
<g id="edge7" class="edge"><title>0102&#45;&#45;CDN1</title>
<path fill="none" stroke="blue" d="M119.804,-244.459C104.475,-248.219 84.306,-253.167 67.3922,-257.315"/>
</g>
</g>
</svg>
